<svg xmlns="http://www.w3.org/2000/svg" viewBox="0 0 1100 720" width="1100" height="720" font-family="Segoe UI, Arial, sans-serif">
  <defs>
    <linearGradient id="bg" x1="0%" y1="0%" x2="100%" y2="100%">
      <stop offset="0%" style="stop-color:#0a0f1e"/>
      <stop offset="100%" style="stop-color:#141c30"/>
    </linearGradient>
    <linearGradient id="psG" x1="0%" y1="0%" x2="0%" y2="100%">
      <stop offset="0%" style="stop-color:#1b3a6e"/>
      <stop offset="100%" style="stop-color:#0e2040"/>
    </linearGradient>
    <linearGradient id="plG" x1="0%" y1="0%" x2="0%" y2="100%">
      <stop offset="0%" style="stop-color:#0d3c25"/>
      <stop offset="100%" style="stop-color:#081e14"/>
    </linearGradient>
    <linearGradient id="saG" x1="0%" y1="0%" x2="0%" y2="100%">
      <stop offset="0%" style="stop-color:#0a2a3a"/>
      <stop offset="100%" style="stop-color:#061820"/>
    </linearGradient>
    <linearGradient id="tmrG" x1="0%" y1="0%" x2="100%" y2="100%">
      <stop offset="0%" style="stop-color:#c24a10"/>
      <stop offset="100%" style="stop-color:#7a2e08"/>
    </linearGradient>
    <linearGradient id="dmrG" x1="0%" y1="0%" x2="100%" y2="100%">
      <stop offset="0%" style="stop-color:#c89b0a"/>
      <stop offset="100%" style="stop-color:#816208"/>
    </linearGradient>
    <linearGradient id="peS" x1="0%" y1="0%" x2="100%" y2="100%">
      <stop offset="0%" style="stop-color:#253540"/>
      <stop offset="100%" style="stop-color:#141e28"/>
    </linearGradient>
    <filter id="sh">
      <feDropShadow dx="2" dy="3" stdDeviation="5" flood-color="#000" flood-opacity="0.6"/>
    </filter>
    <marker id="aR" markerWidth="8" markerHeight="8" refX="7" refY="3" orient="auto">
      <path d="M0,0 L0,6 L8,3 z" fill="#64b5f6"/>
    </marker>
    <marker id="aL" markerWidth="8" markerHeight="8" refX="1" refY="3" orient="auto">
      <path d="M8,0 L8,6 L0,3 z" fill="#64b5f6"/>
    </marker>
    <marker id="aD" markerWidth="7" markerHeight="7" refX="3" refY="7" orient="auto">
      <path d="M0,0 L6,0 L3,7 z" fill="#80cbc4"/>
    </marker>
    <marker id="aU" markerWidth="7" markerHeight="7" refX="3" refY="0" orient="auto">
      <path d="M0,7 L6,7 L3,0 z" fill="#80cbc4"/>
    </marker>
    <marker id="aRg" markerWidth="8" markerHeight="8" refX="7" refY="3" orient="auto">
      <path d="M0,0 L0,6 L8,3 z" fill="#66bb6a"/>
    </marker>
    <marker id="aRo" markerWidth="8" markerHeight="8" refX="7" refY="3" orient="auto">
      <path d="M0,0 L0,6 L8,3 z" fill="#ffa726"/>
    </marker>
  </defs>

  <!-- Background -->
  <rect width="1100" height="720" fill="url(#bg)" rx="14"/>

  <!-- Title Bar -->
  <rect x="0" y="0" width="1100" height="46" rx="14" fill="#0d1b35"/>
  <rect x="0" y="32" width="1100" height="14" fill="#0d1b35"/>
  <text x="550" y="29" text-anchor="middle" font-size="17" font-weight="bold" fill="#e3f2fd" letter-spacing="1.5">Modern FPGA DNN Inference Accelerator — PS + PL Co-Design with Selective PE Protection</text>

  <!-- ══════════════════ PS BLOCK ══════════════════ -->
  <rect x="18" y="55" width="288" height="648" rx="12" fill="url(#psG)" stroke="#4a90d9" stroke-width="2" filter="url(#sh)"/>
  <!-- PS header -->
  <rect x="18" y="55" width="288" height="34" rx="12" fill="#1f4e8c"/>
  <rect x="18" y="72" width="288" height="17" fill="#1f4e8c"/>
  <text x="162" y="71" text-anchor="middle" font-size="12" font-weight="bold" fill="#fff">PS – ARM Cortex-A9</text>
  <text x="162" y="84" text-anchor="middle" font-size="10" fill="#90caf9">Processing System (Zynq)</text>

  <!-- Sections inside PS -->
  <!-- 1. Host Controller -->
  <rect x="30" y="98" width="264" height="76" rx="8" fill="#122a50" stroke="#2a6090" stroke-width="1"/>
  <text x="162" y="114" text-anchor="middle" font-size="10" font-weight="bold" fill="#64b5f6">① Host Controller</text>
  <text x="40" y="129" font-size="9" fill="#90c8e8">• Layer scheduler &amp; dataflow control</text>
  <text x="40" y="143" font-size="9" fill="#90c8e8">• DMA driver (AXI HP port, pynq.lib.dma)</text>
  <text x="40" y="157" font-size="9" fill="#90c8e8">• Overlay management (.bit / .hwh)</text>
  <text x="40" y="169" font-size="9" fill="#90c8e8">• Fault status monitor (error/interrupt)</text>

  <!-- 2. Pure Python Runtime -->
  <rect x="30" y="182" width="264" height="148" rx="8" fill="#122a50" stroke="#2a6090" stroke-width="1"/>
  <text x="162" y="197" text-anchor="middle" font-size="10" font-weight="bold" fill="#64b5f6">② Pure Python Runtime (no NumPy)</text>
  <!-- im2col -->
  <rect x="40" y="203" width="244" height="20" rx="4" fill="#1565c0" stroke="#42a5f5" stroke-width="0.8"/>
  <text x="162" y="216" text-anchor="middle" font-size="9" fill="#fff">im2col  →  tile NxN  →  DMA send ▶ PL</text>
  <!-- offloaded -->
  <rect x="40" y="228" width="116" height="18" rx="4" fill="#1a3f6e" stroke="#3c7aaf" stroke-width="0.8"/>
  <text x="98" y="240" text-anchor="middle" font-size="8.5" fill="#90caf9">Conv2D ▶ PL</text>
  <rect x="162" y="228" width="122" height="18" rx="4" fill="#1a3f6e" stroke="#3c7aaf" stroke-width="0.8"/>
  <text x="223" y="240" text-anchor="middle" font-size="8.5" fill="#90caf9">FC (Linear) ▶ PL</text>
  <!-- PS-only -->
  <line x1="40" y1="253" x2="284" y2="253" stroke="#2a4a70" stroke-width="0.7" stroke-dasharray="3,2"/>
  <text x="162" y="264" text-anchor="middle" font-size="8" fill="#4a7090" font-style="italic">PS-only layers (pure Python)</text>
  <rect x="40" y="270" width="76" height="17" rx="4" fill="#102030" stroke="#1e4060" stroke-width="0.8"/>
  <text x="78" y="281" text-anchor="middle" font-size="8.5" fill="#80b8d8">ReLU</text>
  <rect x="122" y="270" width="76" height="17" rx="4" fill="#102030" stroke="#1e4060" stroke-width="0.8"/>
  <text x="160" y="281" text-anchor="middle" font-size="8.5" fill="#80b8d8">MaxPool</text>
  <rect x="204" y="270" width="80" height="17" rx="4" fill="#102030" stroke="#1e4060" stroke-width="0.8"/>
  <text x="244" y="281" text-anchor="middle" font-size="8.5" fill="#80b8d8">Flatten</text>
  <rect x="40" y="292" width="116" height="17" rx="4" fill="#102030" stroke="#1e4060" stroke-width="0.8"/>
  <text x="98" y="303" text-anchor="middle" font-size="8.5" fill="#80b8d8">BN / LayerNorm</text>
  <rect x="162" y="292" width="122" height="17" rx="4" fill="#102030" stroke="#1e4060" stroke-width="0.8"/>
  <text x="223" y="303" text-anchor="middle" font-size="8.5" fill="#80b8d8">Softmax / Argmax</text>
  <text x="162" y="322" text-anchor="middle" font-size="8" fill="#3a7090" font-style="italic">Dropout skipped (inference only)</text>

  <!-- 3. Model & Weight Manager -->
  <rect x="30" y="338" width="264" height="90" rx="8" fill="#122a50" stroke="#2a6090" stroke-width="1"/>
  <text x="162" y="354" text-anchor="middle" font-size="10" font-weight="bold" fill="#64b5f6">③ Model &amp; Weight Manager</text>
  <text x="40" y="368" font-size="9" fill="#90c8e8">• Load model JSON config at runtime</text>
  <text x="40" y="381" font-size="9" fill="#90c8e8">• .pth → .bin conversion (offline, PC-side)</text>
  <text x="40" y="394" font-size="9" fill="#90c8e8">• Quantization: FP32 / INT8 selectable</text>
  <text x="40" y="407" font-size="9" fill="#90c8e8">• Layer tiling plan (based on SA size N)</text>
  <text x="40" y="420" font-size="9" fill="#90c8e8">• Dataset loader: any image folder (SD card)</text>

  <!-- 4. Protection Config -->
  <rect x="30" y="436" width="264" height="90" rx="8" fill="#1a1030" stroke="#5a3090" stroke-width="1"/>
  <text x="162" y="452" text-anchor="middle" font-size="10" font-weight="bold" fill="#ce93d8">④ PE Protection Configurator</text>
  <text x="40" y="467" font-size="9" fill="#ba8fd0">• Read protection_map.json at load time</text>
  <text x="40" y="480" font-size="9" fill="#ba8fd0">• Validate bitstream protection config</text>
  <text x="40" y="493" font-size="9" fill="#ba8fd0">• Monitor DMR error flags from PL</text>
  <text x="40" y="506" font-size="9" fill="#ba8fd0">• Log fault events → reliability report</text>
  <text x="40" y="519" font-size="9" fill="#ba8fd0">• Criticality: based on NVF / layer depth</text>

  <!-- 5. Interface info -->
  <rect x="30" y="534" width="264" height="58" rx="8" fill="#0e1e10" stroke="#2a5030" stroke-width="1"/>
  <text x="162" y="549" text-anchor="middle" font-size="9" font-weight="bold" fill="#66bb6a">⑤ Jupyter Notebook Interface</text>
  <text x="40" y="563" font-size="9" fill="#80c080">• pynq.Overlay(.bit) → loads PL config</text>
  <text x="40" y="576" font-size="9" fill="#80c080">• pynq.lib.dma → send/recv buffers</text>
  <text x="40" y="589" font-size="9" fill="#80c080">• LAN / Ethernet  ← Developer PC Browser</text>

  <!-- DDR note -->
  <rect x="30" y="600" width="264" height="30" rx="6" fill="#0a100e" stroke="#1a2a20" stroke-width="1"/>
  <text x="162" y="619" text-anchor="middle" font-size="9" fill="#40806a">DDR3 Memory (512 MB) — shared PS/PL via AXI HP</text>

  <!-- LAN arrow at bottom -->
  <rect x="30" y="638" width="264" height="54" rx="8" fill="#060c18" stroke="#1a2a40" stroke-width="1" stroke-dasharray="4,2"/>
  <text x="162" y="654" text-anchor="middle" font-size="9" fill="#5070a0">🌐 Developer PC</text>
  <text x="162" y="668" text-anchor="middle" font-size="9" fill="#4a6090">↕  Ethernet LAN  →  Jupyter Server</text>
  <text x="162" y="681" text-anchor="middle" font-size="9" fill="#4a6090">SSH / SCP (deploy .bit + .bin files)</text>

  <!-- ══════════════════ AXI FABRIC CENTER ══════════════════ -->
  <!-- AXI Interconnect column -->
  <rect x="316" y="55" width="84" height="648" rx="10" fill="#0a1520" stroke="#244060" stroke-width="1.2"/>
  <text x="358" y="172" text-anchor="middle" font-size="9" font-weight="bold" fill="#4a80b0" transform="rotate(-90,358,172)">A X I   I n t e r c o n n e c t   &amp;   D M A</text>

  <!-- AXI-Stream arrows (PS→PL, PL→PS) -->
  <!-- Send channel -->
  <line x1="307" y1="240" x2="404" y2="240" stroke="#42a5f5" stroke-width="2.5" marker-end="url(#aR)"/>
  <text x="355" y="234" text-anchor="middle" font-size="8" fill="#42a5f5">S2MM</text>
  <!-- Recv channel -->
  <line x1="404" y1="264" x2="307" y2="264" stroke="#42a5f5" stroke-width="2.5" marker-end="url(#aL)"/>
  <text x="355" y="274" text-anchor="middle" font-size="8" fill="#42a5f5">MM2S</text>

  <!-- HP0 port -->
  <rect x="324" y="290" width="68" height="18" rx="4" fill="#0e1e30" stroke="#244060" stroke-width="0.8"/>
  <text x="358" y="302" text-anchor="middle" font-size="8" fill="#4a7aaa">HP0 Port</text>
  <!-- GP0 port -->
  <rect x="324" y="314" width="68" height="18" rx="4" fill="#0e1e30" stroke="#244060" stroke-width="0.8"/>
  <text x="358" y="326" text-anchor="middle" font-size="8" fill="#4a7aaa">GP0 Ctrl</text>
  <!-- IRQ -->
  <rect x="324" y="338" width="68" height="18" rx="4" fill="#18101e" stroke="#402060" stroke-width="0.8"/>
  <text x="358" y="350" text-anchor="middle" font-size="8" fill="#9060b0">IRQ/Fault</text>

  <!-- ══════════════════ PL BLOCK ══════════════════ -->
  <rect x="408" y="55" width="678" height="648" rx="12" fill="url(#plG)" stroke="#3cb371" stroke-width="2" filter="url(#sh)"/>
  <!-- PL header -->
  <rect x="408" y="55" width="678" height="34" rx="12" fill="#1a5035"/>
  <rect x="408" y="72" width="678" height="17" fill="#1a5035"/>
  <text x="747" y="72" text-anchor="middle" font-size="13" font-weight="bold" fill="#fff">PL – FPGA Fabric (Programmable Logic)</text>
  <text x="747" y="85" text-anchor="middle" font-size="10" fill="#80e8a0">Zynq XC7Z020  —  Reconfigurable via bitstream</text>

  <!-- ─── TOP ROW: mm_axi + DMA wrapper ─── -->
  <rect x="420" y="97" width="654" height="44" rx="8" fill="#0e3a20" stroke="#2a8050" stroke-width="1.2"/>
  <text x="747" y="113" text-anchor="middle" font-size="11" font-weight="bold" fill="#50e880">mm_axi.v  —  AXI-Stream Wrapper</text>
  <text x="747" y="130" text-anchor="middle" font-size="9" fill="#40b860">Parameters: M = N (fixed), D_W = 8-bit INT8  │  AXI-Stream S2MM (input) + MM2S (output)  │  Banked BRAM controller</text>

  <!-- Arrow down to mm.sv -->
  <line x1="747" y1="141" x2="747" y2="153" stroke="#3cb371" stroke-width="1.5" marker-end="url(#aD)"/>

  <!-- ─── mm.sv controller ─── -->
  <rect x="420" y="153" width="654" height="40" rx="7" fill="#0e3a20" stroke="#2a8050" stroke-width="1.2"/>
  <text x="747" y="169" text-anchor="middle" font-size="10" font-weight="bold" fill="#50e880">mm.sv  —  Matrix Multiply Controller</text>
  <text x="747" y="182" text-anchor="middle" font-size="9" fill="#40b060">Write M0+M1 → Banked BRAMs  │  Fire systolic.sv  │  Read M2 results → DMA output  │  Done flag</text>

  <!-- Arrow down to systolic -->
  <line x1="747" y1="193" x2="747" y2="205" stroke="#3cb371" stroke-width="1.5" marker-end="url(#aD)"/>

  <!-- ─── SYSTOLIC ARRAY BLOCK ─── -->
  <rect x="420" y="205" width="654" height="316" rx="10" fill="url(#saG)" stroke="#1a6080" stroke-width="1.5"/>
  <text x="747" y="222" text-anchor="middle" font-size="11" font-weight="bold" fill="#4dd0e1">systolic.sv  —  NxN PE Grid  (Weight-Stationary Dataflow)</text>
  <line x1="432" y1="228" x2="1062" y2="228" stroke="#1a4060" stroke-width="0.8"/>

  <!-- Dataflow label on left -->
  <text x="436" y="248" font-size="8.5" fill="#3a7090" font-style="italic">← input A (rows, m0)  streamed horizontally →</text>
  <!-- Dataflow label on top -->
  <text x="747" y="244" text-anchor="middle" font-size="8.5" fill="#3a7090" font-style="italic">↓ input B (cols, m1) streamed vertically ↓</text>

  <!-- PE GRID 4x4 -->
  <!-- Row 0 -->
  <!-- (0,0) TMR -->
  <rect x="436" y="252" width="98" height="58" rx="7" fill="url(#tmrG)" stroke="#ff6d00" stroke-width="1.8"/>
  <text x="485" y="270" text-anchor="middle" font-size="8" font-weight="bold" fill="#fff">PE (0,0)</text>
  <rect x="448" y="277" width="74" height="16" rx="3" fill="#501808"/>
  <text x="485" y="289" text-anchor="middle" font-size="8" fill="#ffcc80">TMR  ✓ corrects</text>

  <!-- (0,1) TMR -->
  <rect x="546" y="252" width="98" height="58" rx="7" fill="url(#tmrG)" stroke="#ff6d00" stroke-width="1.8"/>
  <text x="595" y="270" text-anchor="middle" font-size="8" font-weight="bold" fill="#fff">PE (0,1)</text>
  <rect x="558" y="277" width="74" height="16" rx="3" fill="#501808"/>
  <text x="595" y="289" text-anchor="middle" font-size="8" fill="#ffcc80">TMR  ✓ corrects</text>

  <!-- (0,2) DMR -->
  <rect x="656" y="252" width="98" height="58" rx="7" fill="url(#dmrG)" stroke="#ffd600" stroke-width="1.5"/>
  <text x="705" y="270" text-anchor="middle" font-size="8" font-weight="bold" fill="#fff">PE (0,2)</text>
  <rect x="668" y="277" width="74" height="16" rx="3" fill="#403008"/>
  <text x="705" y="289" text-anchor="middle" font-size="8" fill="#fff59d">DMR  ⚠ detects</text>

  <!-- (0,3) DMR -->
  <rect x="766" y="252" width="98" height="58" rx="7" fill="url(#dmrG)" stroke="#ffd600" stroke-width="1.5"/>
  <text x="815" y="270" text-anchor="middle" font-size="8" font-weight="bold" fill="#fff">PE (0,3)</text>
  <rect x="778" y="277" width="74" height="16" rx="3" fill="#403008"/>
  <text x="815" y="289" text-anchor="middle" font-size="8" fill="#fff59d">DMR  ⚠ detects</text>

  <!-- (0,4) plain -->
  <rect x="876" y="252" width="98" height="58" rx="7" fill="url(#peS)" stroke="#4a6a80" stroke-width="1.2"/>
  <text x="925" y="270" text-anchor="middle" font-size="8" font-weight="bold" fill="#ccd8e0">PE (0,4)</text>
  <rect x="888" y="277" width="74" height="16" rx="3" fill="#1a2a38"/>
  <text x="925" y="289" text-anchor="middle" font-size="8" fill="#6a8a9a">Unprotected</text>

  <!-- H arrows row 0 -->
  <line x1="534" y1="281" x2="546" y2="281" stroke="#64b5f6" stroke-width="1.2" marker-end="url(#aR)"/>
  <line x1="644" y1="281" x2="656" y2="281" stroke="#64b5f6" stroke-width="1.2" marker-end="url(#aR)"/>
  <line x1="754" y1="281" x2="766" y2="281" stroke="#64b5f6" stroke-width="1.2" marker-end="url(#aR)"/>
  <line x1="864" y1="281" x2="876" y2="281" stroke="#64b5f6" stroke-width="1.2" marker-end="url(#aR)"/>

  <!-- Row 1 -->
  <!-- (1,0) TMR -->
  <rect x="436" y="322" width="98" height="58" rx="7" fill="url(#tmrG)" stroke="#ff6d00" stroke-width="1.8"/>
  <text x="485" y="340" text-anchor="middle" font-size="8" font-weight="bold" fill="#fff">PE (1,0)</text>
  <rect x="448" y="347" width="74" height="16" rx="3" fill="#501808"/>
  <text x="485" y="359" text-anchor="middle" font-size="8" fill="#ffcc80">TMR  ✓ corrects</text>

  <!-- (1,1) TMR -->
  <rect x="546" y="322" width="98" height="58" rx="7" fill="url(#tmrG)" stroke="#ff6d00" stroke-width="1.8"/>
  <text x="595" y="340" text-anchor="middle" font-size="8" font-weight="bold" fill="#fff">PE (1,1)</text>
  <rect x="558" y="347" width="74" height="16" rx="3" fill="#501808"/>
  <text x="595" y="359" text-anchor="middle" font-size="8" fill="#ffcc80">TMR  ✓ corrects</text>

  <!-- (1,2) DMR -->
  <rect x="656" y="322" width="98" height="58" rx="7" fill="url(#dmrG)" stroke="#ffd600" stroke-width="1.5"/>
  <text x="705" y="340" text-anchor="middle" font-size="8" font-weight="bold" fill="#fff">PE (1,2)</text>
  <rect x="668" y="347" width="74" height="16" rx="3" fill="#403008"/>
  <text x="705" y="359" text-anchor="middle" font-size="8" fill="#fff59d">DMR  ⚠ detects</text>

  <!-- (1,3)+(1,4) plain -->
  <rect x="766" y="322" width="98" height="58" rx="7" fill="url(#peS)" stroke="#4a6a80" stroke-width="1.2"/>
  <text x="815" y="340" text-anchor="middle" font-size="8" font-weight="bold" fill="#ccd8e0">PE (1,3)</text>
  <rect x="778" y="347" width="74" height="16" rx="3" fill="#1a2a38"/>
  <text x="815" y="359" text-anchor="middle" font-size="8" fill="#6a8a9a">Unprotected</text>

  <rect x="876" y="322" width="98" height="58" rx="7" fill="url(#peS)" stroke="#4a6a80" stroke-width="1.2"/>
  <text x="925" y="340" text-anchor="middle" font-size="8" font-weight="bold" fill="#ccd8e0">PE (1,4)</text>
  <rect x="888" y="347" width="74" height="16" rx="3" fill="#1a2a38"/>
  <text x="925" y="359" text-anchor="middle" font-size="8" fill="#6a8a9a">Unprotected</text>

  <!-- H arrows row 1 -->
  <line x1="534" y1="351" x2="546" y2="351" stroke="#64b5f6" stroke-width="1.2" marker-end="url(#aR)"/>
  <line x1="644" y1="351" x2="656" y2="351" stroke="#64b5f6" stroke-width="1.2" marker-end="url(#aR)"/>
  <line x1="754" y1="351" x2="766" y2="351" stroke="#64b5f6" stroke-width="1.2" marker-end="url(#aR)"/>
  <line x1="864" y1="351" x2="876" y2="351" stroke="#64b5f6" stroke-width="1.2" marker-end="url(#aR)"/>

  <!-- V arrows between rows 0-1 -->
  <line x1="485" y1="310" x2="485" y2="322" stroke="#64b5f6" stroke-width="1.2" marker-end="url(#aD)"/>
  <line x1="595" y1="310" x2="595" y2="322" stroke="#64b5f6" stroke-width="1.2" marker-end="url(#aD)"/>
  <line x1="705" y1="310" x2="705" y2="322" stroke="#64b5f6" stroke-width="1.2" marker-end="url(#aD)"/>
  <line x1="815" y1="310" x2="815" y2="322" stroke="#64b5f6" stroke-width="1.2" marker-end="url(#aD)"/>
  <line x1="925" y1="310" x2="925" y2="322" stroke="#64b5f6" stroke-width="1.2" marker-end="url(#aD)"/>

  <!-- Row 2: all plain -->
  <rect x="436" y="392" width="98" height="58" rx="7" fill="url(#peS)" stroke="#4a6a80" stroke-width="1.2"/>
  <text x="485" y="410" text-anchor="middle" font-size="8" font-weight="bold" fill="#ccd8e0">PE (2,0)</text>
  <rect x="448" y="417" width="74" height="16" rx="3" fill="#1a2a38"/>
  <text x="485" y="429" text-anchor="middle" font-size="8" fill="#6a8a9a">Unprotected</text>

  <rect x="546" y="392" width="98" height="58" rx="7" fill="url(#peS)" stroke="#4a6a80" stroke-width="1.2"/>
  <text x="595" y="410" text-anchor="middle" font-size="8" font-weight="bold" fill="#ccd8e0">PE (2,1)</text>
  <rect x="558" y="417" width="74" height="16" rx="3" fill="#1a2a38"/>
  <text x="595" y="429" text-anchor="middle" font-size="8" fill="#6a8a9a">Unprotected</text>

  <rect x="656" y="392" width="98" height="58" rx="7" fill="url(#peS)" stroke="#4a6a80" stroke-width="1.2"/>
  <text x="705" y="410" text-anchor="middle" font-size="8" font-weight="bold" fill="#ccd8e0">PE (2,2)</text>
  <rect x="668" y="417" width="74" height="16" rx="3" fill="#1a2a38"/>
  <text x="705" y="429" text-anchor="middle" font-size="8" fill="#6a8a9a">Unprotected</text>

  <rect x="766" y="392" width="98" height="58" rx="7" fill="url(#peS)" stroke="#4a6a80" stroke-width="1.2"/>
  <text x="815" y="410" text-anchor="middle" font-size="8" font-weight="bold" fill="#ccd8e0">PE (2,3)</text>
  <rect x="778" y="417" width="74" height="16" rx="3" fill="#1a2a38"/>
  <text x="815" y="429" text-anchor="middle" font-size="8" fill="#6a8a9a">Unprotected</text>

  <rect x="876" y="392" width="98" height="58" rx="7" fill="url(#peS)" stroke="#4a6a80" stroke-width="1.2"/>
  <text x="925" y="410" text-anchor="middle" font-size="8" font-weight="bold" fill="#ccd8e0">PE (2,4)</text>
  <rect x="888" y="417" width="74" height="16" rx="3" fill="#1a2a38"/>
  <text x="925" y="429" text-anchor="middle" font-size="8" fill="#6a8a9a">Unprotected</text>

  <!-- H arrows row 2 -->
  <line x1="534" y1="421" x2="546" y2="421" stroke="#4a6070" stroke-width="1.0" marker-end="url(#aR)"/>
  <line x1="644" y1="421" x2="656" y2="421" stroke="#4a6070" stroke-width="1.0" marker-end="url(#aR)"/>
  <line x1="754" y1="421" x2="766" y2="421" stroke="#4a6070" stroke-width="1.0" marker-end="url(#aR)"/>
  <line x1="864" y1="421" x2="876" y2="421" stroke="#4a6070" stroke-width="1.0" marker-end="url(#aR)"/>

  <!-- V arrows between rows 1-2 -->
  <line x1="485" y1="380" x2="485" y2="392" stroke="#4a6070" stroke-width="1.0" marker-end="url(#aD)"/>
  <line x1="595" y1="380" x2="595" y2="392" stroke="#4a6070" stroke-width="1.0" marker-end="url(#aD)"/>
  <line x1="705" y1="380" x2="705" y2="392" stroke="#4a6070" stroke-width="1.0" marker-end="url(#aD)"/>
  <line x1="815" y1="380" x2="815" y2="392" stroke="#4a6070" stroke-width="1.0" marker-end="url(#aD)"/>
  <line x1="925" y1="380" x2="925" y2="392" stroke="#4a6070" stroke-width="1.0" marker-end="url(#aD)"/>

  <!-- Criticality annotation -->
  <rect x="432" y="456" width="634" height="58" rx="6" fill="#0a1a10" stroke="#1a4020" stroke-width="0.8" stroke-dasharray="4,2"/>
  <text x="749" y="470" text-anchor="middle" font-size="9" font-weight="bold" fill="#4db870">Selective Protection Strategy (based on Neuron Vulnerability Factor — NVF)</text>
  <rect x="440" y="477" width="136" height="16" rx="3" fill="#501808" stroke="#ff6d00" stroke-width="0.5"/>
  <text x="508" y="488" text-anchor="middle" font-size="8" fill="#ffcc80">TMR:  Early rows  (high NVF, critical layers)</text>
  <rect x="584" y="477" width="136" height="16" rx="3" fill="#403008" stroke="#ffd600" stroke-width="0.5"/>
  <text x="652" y="488" text-anchor="middle" font-size="8" fill="#fff59d">DMR:  Mid rows  (moderate NVF)</text>
  <rect x="728" y="477" width="136" height="16" rx="3" fill="#1a2a38" stroke="#4a6a80" stroke-width="0.5"/>
  <text x="796" y="488" text-anchor="middle" font-size="8" fill="#6a8a9a">None:  Late rows  (low sensitivity)</text>
  <text x="880" y="488" font-size="8" fill="#3a6060">configured per-PE via TCL</text>

  <!-- ─── BANKED BRAMs ─── -->
  <line x1="747" y1="521" x2="747" y2="533" stroke="#3cb371" stroke-width="1.5" marker-end="url(#aD)"/>
  <rect x="420" y="533" width="654" height="54" rx="8" fill="#0a2018" stroke="#2a6040" stroke-width="1.5"/>
  <text x="747" y="550" text-anchor="middle" font-size="10" font-weight="bold" fill="#50e880">Banked BRAMs (N banks each)</text>
  <rect x="432" y="558" width="142" height="20" rx="4" fill="#0e2a18" stroke="#2a6a38" stroke-width="1"/>
  <text x="503" y="571" text-anchor="middle" font-size="9" fill="#60d890">M0  —  Input  activation A</text>
  <rect x="582" y="558" width="142" height="20" rx="4" fill="#0e2a18" stroke="#2a6a38" stroke-width="1"/>
  <text x="653" y="571" text-anchor="middle" font-size="9" fill="#60d890">M1  —  Weight / kernel B</text>
  <rect x="732" y="558" width="138" height="20" rx="4" fill="#0e2a18" stroke="#2a6a38" stroke-width="1"/>
  <text x="801" y="571" text-anchor="middle" font-size="9" fill="#60d890">M2  —  Output  result</text>
  <text x="886" y="571" font-size="8.5" fill="#3a6040">N banks, parallelized</text>

  <!-- ─── POST-PROCESSING UNIT (optional) ─── -->
  <line x1="747" y1="587" x2="747" y2="599" stroke="#3cb371" stroke-width="1.5" marker-end="url(#aD)"/>
  <rect x="420" y="599" width="654" height="44" rx="8" fill="#0a2018" stroke="#2a6040" stroke-width="1.2"/>
  <text x="747" y="616" text-anchor="middle" font-size="10" font-weight="bold" fill="#50e880">Optional: Hardware Post-processor (HLS/Verilog)</text>
  <text x="747" y="631" text-anchor="middle" font-size="9" fill="#40b060">Bias addition  │  ReLU fused  │  Layer norm  │  Quantization scale (INT8→FP32)</text>
  <text x="924" y="616" font-size="8" fill="#2a7040" font-style="italic">(optional, not in Phase 1)</text>

  <!-- ─── TCL CONFIG note ─── -->
  <rect x="420" y="652" width="654" height="38" rx="7" fill="#080e10" stroke="#1a3040" stroke-width="1" stroke-dasharray="4,2"/>
  <text x="747" y="667" text-anchor="middle" font-size="9" fill="#3a8090">⚙  Build-time configuration via TCL:   N (array size)  │  D_W (bit-width)  │  PE protection_map per (i,j)</text>
  <text x="747" y="681" text-anchor="middle" font-size="9" fill="#2a6070">Vivado Block Design: Zynq PS7 → AXI Interconnect → AXI DMA (HP0) → mm_axi → systolic.sv</text>

  <!-- ══════════════════ RIGHT: CRITICALITY ANNOTATION ══════════════════ -->
  <!-- Dashed annotation on right showing NVF concept -->
  <!-- High criticality bracket -->
  <line x1="978" y1="252" x2="994" y2="252" stroke="#ff6d00" stroke-width="1" stroke-dasharray="2,2"/>
  <line x1="994" y1="252" x2="994" y2="380" stroke="#ff6d00" stroke-width="1.2"/>
  <line x1="994" y1="380" x2="978" y2="380" stroke="#ff6d00" stroke-width="1" stroke-dasharray="2,2"/>
  <text x="1002" y="290" font-size="8" fill="#ff8040" font-style="italic">High</text>
  <text x="1002" y="302" font-size="8" fill="#ff8040" font-style="italic">NVF</text>
  <text x="1002" y="314" font-size="8" fill="#ff8040" font-style="italic">→TMR</text>
  <!-- Medium criticality bracket -->
  <line x1="978" y1="322" x2="1054" y2="322" stroke="#ffd600" stroke-width="1" stroke-dasharray="2,2"/>
  <line x1="1054" y1="322" x2="1054" y2="380" stroke="#ffd600" stroke-width="1.2"/>
  <line x1="1054" y1="380" x2="978" y2="380" stroke="#ffd600" stroke-width="1" stroke-dasharray="2,2"/>
  <text x="1062" y="345" font-size="8" fill="#ffd040" font-style="italic">Med</text>
  <text x="1062" y="357" font-size="8" fill="#ffd040" font-style="italic">NVF</text>
  <text x="1062" y="369" font-size="8" fill="#ffd040" font-style="italic">→DMR</text>
</svg>
